<svg width="150" height="32" viewBox="0 0 150 32" fill="none" xmlns="http://www.w3.org/2000/svg">
<path d="M0.24 24V0.959999H9.968C10.192 0.959999 10.4907 0.970666 10.864 0.991999C11.248 1.00267 11.5893 1.03467 11.888 1.088C13.264 1.30133 14.3893 1.75467 15.264 2.448C16.1493 3.14133 16.8 4.016 17.216 5.072C17.632 6.11733 17.84 7.28533 17.84 8.576C17.84 9.86667 17.6267 11.04 17.2 12.096C16.784 13.1413 16.1333 14.0107 15.248 14.704C14.3733 15.3973 13.2533 15.8507 11.888 16.064C11.5893 16.1067 11.248 16.1387 10.864 16.16C10.48 16.1813 10.1813 16.192 9.968 16.192H4.592V24H0.24ZM4.592 12.128H9.776C10 12.128 10.2453 12.1173 10.512 12.096C10.7787 12.0747 11.024 12.032 11.248 11.968C11.8347 11.808 12.288 11.5413 12.608 11.168C12.928 10.784 13.1467 10.3627 13.264 9.904C13.392 9.43467 13.456 8.992 13.456 8.576C13.456 8.16 13.392 7.72267 13.264 7.264C13.1467 6.79467 12.928 6.37333 12.608 6C12.288 5.616 11.8347 5.344 11.248 5.184C11.024 5.12 10.7787 5.07733 10.512 5.056C10.2453 5.03467 10 5.024 9.776 5.024H4.592V12.128ZM21.3725 24V0.48H25.7245V24H21.3725ZM35.3213 24.48C34.0839 24.48 33.0333 24.2453 32.1693 23.776C31.3159 23.296 30.6653 22.6613 30.2173 21.872C29.7799 21.072 29.5613 20.192 29.5613 19.232C29.5613 18.432 29.6839 17.7013 29.9293 17.04C30.1746 16.3787 30.5693 15.7973 31.1133 15.296C31.6679 14.784 32.4093 14.3573 33.3373 14.016C33.9773 13.7813 34.7399 13.5733 35.6253 13.392C36.5106 13.2107 37.5133 13.04 38.6333 12.88C39.7533 12.7093 40.9853 12.5227 42.3293 12.32L40.7613 13.184C40.7613 12.16 40.5159 11.408 40.0253 10.928C39.5346 10.448 38.7133 10.208 37.5613 10.208C36.9213 10.208 36.2546 10.3627 35.5613 10.672C34.8679 10.9813 34.3826 11.5307 34.1053 12.32L30.1693 11.072C30.6066 9.64267 31.4279 8.48 32.6333 7.584C33.8386 6.688 35.4813 6.24 37.5613 6.24C39.0866 6.24 40.4413 6.47467 41.6253 6.944C42.8093 7.41333 43.7053 8.224 44.3133 9.376C44.6546 10.016 44.8573 10.656 44.9213 11.296C44.9853 11.936 45.0173 12.6507 45.0173 13.44V24H41.2093V20.448L41.7533 21.184C40.9106 22.3467 39.9986 23.1893 39.0173 23.712C38.0466 24.224 36.8146 24.48 35.3213 24.48ZM36.2493 21.056C37.0493 21.056 37.7213 20.9173 38.2653 20.64C38.8199 20.352 39.2573 20.0267 39.5773 19.664C39.9079 19.3013 40.1319 18.9973 40.2493 18.752C40.4733 18.2827 40.6013 17.7387 40.6333 17.12C40.6759 16.4907 40.6973 15.968 40.6973 15.552L41.9773 15.872C40.6866 16.0853 39.6413 16.2667 38.8413 16.416C38.0413 16.5547 37.3959 16.6827 36.9053 16.8C36.4146 16.9173 35.9826 17.0453 35.6093 17.184C35.1826 17.3547 34.8359 17.5413 34.5693 17.744C34.3133 17.936 34.1213 18.1493 33.9933 18.384C33.8759 18.6187 33.8173 18.88 33.8173 19.168C33.8173 19.5627 33.9133 19.904 34.1053 20.192C34.3079 20.4693 34.5906 20.6827 34.9533 20.832C35.3159 20.9813 35.7479 21.056 36.2493 21.056ZM50.4168 31.68L53.7448 22.528L53.8088 25.216L46.2888 6.72H50.8008L55.8568 19.808H54.8328L59.8568 6.72H64.2088L54.4488 31.68H50.4168ZM78.2348 24V15.84C78.2348 15.4453 78.2134 14.944 78.1708 14.336C78.1281 13.7173 77.9948 13.0987 77.7708 12.48C77.5468 11.8613 77.1788 11.344 76.6668 10.928C76.1654 10.512 75.4508 10.304 74.5228 10.304C74.1494 10.304 73.7494 10.3627 73.3228 10.48C72.8961 10.5973 72.4961 10.8267 72.1228 11.168C71.7494 11.4987 71.4401 11.9893 71.1948 12.64C70.9601 13.2907 70.8428 14.1547 70.8428 15.232L68.3468 14.048C68.3468 12.6827 68.6241 11.4027 69.1788 10.208C69.7334 9.01333 70.5654 8.048 71.6748 7.312C72.7948 6.576 74.2028 6.208 75.8988 6.208C77.2534 6.208 78.3574 6.43733 79.2108 6.896C80.0641 7.35467 80.7254 7.936 81.1948 8.64C81.6748 9.344 82.0161 10.08 82.2188 10.848C82.4214 11.6053 82.5441 12.2987 82.5868 12.928C82.6294 13.5573 82.6508 14.016 82.6508 14.304V24H78.2348ZM66.4268 24V6.72H70.2988V12.448H70.8428V24H66.4268ZM94.106 24.48C92.314 24.48 90.778 24.08 89.498 23.28C88.218 22.48 87.2367 21.392 86.554 20.016C85.8713 18.64 85.53 17.088 85.53 15.36C85.53 13.6107 85.882 12.048 86.586 10.672C87.3007 9.296 88.3033 8.21333 89.594 7.424C90.8847 6.63467 92.41 6.24 94.17 6.24C96.2073 6.24 97.914 6.75733 99.29 7.792C100.677 8.816 101.562 10.2187 101.946 12L97.594 13.152C97.338 12.256 96.89 11.5573 96.25 11.056C95.6207 10.5547 94.906 10.304 94.106 10.304C93.1887 10.304 92.4367 10.528 91.85 10.976C91.2633 11.4133 90.8313 12.016 90.554 12.784C90.2767 13.5413 90.138 14.4 90.138 15.36C90.138 16.864 90.4687 18.0853 91.13 19.024C91.802 19.952 92.794 20.416 94.106 20.416C95.0873 20.416 95.834 20.192 96.346 19.744C96.858 19.296 97.242 18.656 97.498 17.824L101.946 18.752C101.455 20.5867 100.527 22 99.162 22.992C97.7967 23.984 96.1113 24.48 94.106 24.48ZM116.922 24V15.84C116.922 15.4453 116.901 14.944 116.858 14.336C116.816 13.7173 116.682 13.0987 116.458 12.48C116.234 11.8613 115.866 11.344 115.354 10.928C114.853 10.512 114.138 10.304 113.21 10.304C112.837 10.304 112.437 10.3627 112.01 10.48C111.584 10.5973 111.184 10.8267 110.81 11.168C110.437 11.4987 110.128 11.9893 109.882 12.64C109.648 13.2907 109.53 14.1547 109.53 15.232L107.034 14.048C107.034 12.6827 107.312 11.4027 107.866 10.208C108.421 9.01333 109.253 8.048 110.362 7.312C111.482 6.576 112.89 6.208 114.586 6.208C115.941 6.208 117.045 6.43733 117.898 6.896C118.752 7.35467 119.413 7.936 119.882 8.64C120.362 9.344 120.704 10.08 120.906 10.848C121.109 11.6053 121.232 12.2987 121.274 12.928C121.317 13.5573 121.338 14.016 121.338 14.304V24H116.922ZM105.114 24V0.959999H108.986V12.8H109.53V24H105.114ZM125.81 4.32V0.48H130.162V4.32H125.81ZM125.81 24V6.72H130.162V24H125.81ZM135.279 24V0.48H139.631V24H135.279ZM144.748 24V0.48H149.1V24H144.748Z" fill="white"/>
</svg>
